<?xml version="1.0" standalone="no"?>
<!DOCTYPE svg PUBLIC "-//W3C//DTD SVG 20010904//EN"
 "http://www.w3.org/TR/2001/REC-SVG-20010904/DTD/svg10.dtd">
<svg version="1.0" xmlns="http://www.w3.org/2000/svg"
 width="128.000000pt" height="128.000000pt" viewBox="0 0 128.000000 128.000000"
 preserveAspectRatio="xMidYMid meet">
<metadata>
Created by potrace 1.11, written by Peter Selinger 2001-2013
</metadata>
<g transform="translate(0.000000,128.000000) scale(0.100000,-0.100000)"
fill="#000000" stroke="none">
<path d="M645 1267 c-16 -8 -41 -25 -55 -39 -14 -13 -44 -30 -68 -36 -80 -24
-142 -107 -142 -194 0 -23 -9 -31 -67 -60 -37 -18 -92 -56 -124 -85 -31 -29
-59 -53 -62 -53 -9 0 -27 61 -27 91 0 35 -11 42 -39 23 -37 -27 -63 -90 -58
-144 5 -46 28 -103 46 -114 5 -4 5 -23 -1 -48 -23 -103 19 -253 93 -332 28
-30 29 -32 23 -116 -7 -103 -1 -114 79 -135 86 -22 94 -20 129 30 32 45 33 46
73 38 50 -9 228 -9 275 1 33 7 37 6 67 -38 37 -52 50 -55 131 -31 76 23 85 36
77 110 l-6 62 43 27 c24 15 63 50 88 77 44 48 48 50 126 58 22 2 34 55 34 150
0 112 -10 131 -77 138 -30 3 -46 13 -78 50 l-40 47 -5 105 -5 106 -35 3 c-22
2 -53 -6 -85 -22 l-49 -25 -54 25 -54 26 31 30 c72 70 60 199 -23 256 -42 28
-120 37 -161 19z"/>
</g>
</svg>
